<svg width="128" height="885" viewBox="0 0 128 885" fill="none" xmlns="http://www.w3.org/2000/svg">
<rect width="128" height="885" rx="20" fill="black"/>
<path d="M53.3333 157.638H46.8889C39.7705 157.638 34 151.867 34 144.749V124.473C34 119.966 36.3542 115.787 40.2085 113.451L56.3197 103.686C60.4258 101.198 65.5742 101.198 69.6803 103.686L85.7914 113.451C89.6458 115.787 92 119.966 92 124.473V144.749C92 151.867 86.2293 157.638 79.1111 157.638H72.6667M53.3333 157.638V144.749C53.3333 139.41 57.6611 135.082 63 135.082C68.3389 135.082 72.6667 139.41 72.6667 144.749V157.638M53.3333 157.638H72.6667" stroke="white" stroke-width="5" stroke-linecap="round" stroke-linejoin="round"/>
<path d="M63 295.065C79.0161 295.065 92 282.081 92 266.065C92 250.049 79.0161 237.065 63 237.065C46.9837 237.065 34 250.049 34 266.065C34 282.081 46.9837 295.065 63 295.065Z" stroke="#367CFF" stroke-width="5" stroke-linecap="round" stroke-linejoin="round"/>
<path d="M54.3 257.365C54.3 247.215 70.25 247.215 70.25 257.365C70.25 264.615 63 263.165 63 271.865" stroke="#367CFF" stroke-width="5" stroke-linecap="round" stroke-linejoin="round"/>
<path d="M63 283.494L63.029 283.462" stroke="#367CFF" stroke-width="5" stroke-linecap="round" stroke-linejoin="round"/>
<path d="M76.8981 405.744L69.685 428.826H55.6884L48.4754 405.744C46.4186 399.163 47.7249 391.99 51.9701 386.557L61.0323 374.957C61.8728 373.881 63.5006 373.881 64.3411 374.957L73.4032 386.557C77.6483 391.99 78.9546 399.163 76.8981 405.744Z" stroke="white" stroke-width="5" stroke-linecap="round" stroke-linejoin="round"/>
<path d="M55.6884 439.323C55.6884 446.322 62.6866 449.821 62.6866 449.821C62.6866 449.821 69.6849 446.322 69.6849 439.323" stroke="white" stroke-width="5" stroke-linecap="round" stroke-linejoin="round"/>
<path d="M50.4397 413.08C38.1927 421.828 45.1909 435.824 45.1909 435.824L55.6884 428.826" stroke="white" stroke-width="5" stroke-linecap="round" stroke-linejoin="round"/>
<path d="M76.4426 413.08C88.6896 421.828 81.6913 435.824 81.6913 435.824L71.1938 428.826" stroke="white" stroke-width="5" stroke-linecap="round" stroke-linejoin="round"/>
<path d="M62.6866 407.831C58.8215 407.831 55.6884 404.698 55.6884 400.833C55.6884 396.968 58.8215 393.835 62.6866 393.835C66.5518 393.835 69.6849 396.968 69.6849 400.833C69.6849 404.698 66.5518 407.831 62.6866 407.831Z" stroke="white" stroke-width="5" stroke-linecap="round" stroke-linejoin="round"/>
<path d="M86.2 551.916C86.2 539.103 75.8131 528.716 63 528.716C50.187 528.716 39.8 539.103 39.8 551.916" stroke="white" stroke-width="5" stroke-linecap="round" stroke-linejoin="round"/>
<path d="M34 564.787V559.345C34 556.683 35.8113 554.363 38.3933 553.718L43.438 552.457C44.5362 552.182 45.6 553.013 45.6 554.145V569.987C45.6 571.12 44.5362 571.95 43.438 571.676L38.3933 570.414C35.8113 569.769 34 567.449 34 564.787Z" stroke="white" stroke-width="5"/>
<path d="M92 564.787V559.345C92 556.683 90.1887 554.363 87.6068 553.718L82.562 552.457C81.4637 552.182 80.4 553.013 80.4 554.145V569.987C80.4 571.12 81.4637 571.95 82.562 571.676L87.6068 570.414C90.1887 569.769 92 567.449 92 564.787Z" stroke="white" stroke-width="5"/>
<path d="M86.2 572.216V573.666C86.2 576.869 83.6033 579.466 80.4 579.466H70.25" stroke="white" stroke-width="5"/>
<path d="M67.35 583.816H58.65C56.2476 583.816 54.3 581.868 54.3 579.466C54.3 577.064 56.2476 575.116 58.65 575.116H67.35C69.7524 575.116 71.7 577.064 71.7 579.466C71.7 581.868 69.7524 583.816 67.35 583.816Z" stroke="white" stroke-width="5"/>
<path d="M34 721.041H63H92" stroke="white" stroke-width="5" stroke-linecap="round" stroke-linejoin="round"/>
<path d="M63.7147 672.155L72.8288 663.041L88.7778 678.99L79.6641 688.104M63.7147 672.155L45.6491 690.221C45.0448 690.825 44.7053 691.644 44.7053 692.499V707.113H59.3199C60.1745 707.113 60.9939 706.774 61.5984 706.17L79.6641 688.104M63.7147 672.155L79.6641 688.104" stroke="white" stroke-width="5" stroke-linecap="round" stroke-linejoin="round"/>
</svg>
